<svg id="visual" viewBox="0 0 900 600" width="900" height="600" xmlns="http://www.w3.org/2000/svg" xmlns:xlink="http://www.w3.org/1999/xlink" version="1.1"><path d="M0 229L21.5 225C43 221 86 213 128.8 208C171.7 203 214.3 201 257.2 207C300 213 343 227 385.8 227C428.7 227 471.3 213 514.2 207C557 201 600 203 642.8 208C685.7 213 728.3 221 771.2 234C814 247 857 265 878.5 274L900 283L900 0L878.5 0C857 0 814 0 771.2 0C728.3 0 685.7 0 642.8 0C600 0 557 0 514.2 0C471.3 0 428.7 0 385.8 0C343 0 300 0 257.2 0C214.3 0 171.7 0 128.8 0C86 0 43 0 21.5 0L0 0Z" fill="#004cbb"></path><path d="M0 439L21.5 440C43 441 86 443 128.8 450C171.7 457 214.3 469 257.2 470C300 471 343 461 385.8 452C428.7 443 471.3 435 514.2 438C557 441 600 455 642.8 457C685.7 459 728.3 449 771.2 451C814 453 857 467 878.5 474L900 481L900 281L878.5 272C857 263 814 245 771.2 232C728.3 219 685.7 211 642.8 206C600 201 557 199 514.2 205C471.3 211 428.7 225 385.8 225C343 225 300 211 257.2 205C214.3 199 171.7 201 128.8 206C86 211 43 219 21.5 223L0 227Z" fill="#6198ff"></path><path d="M0 601L21.5 601C43 601 86 601 128.8 601C171.7 601 214.3 601 257.2 601C300 601 343 601 385.8 601C428.7 601 471.3 601 514.2 601C557 601 600 601 642.8 601C685.7 601 728.3 601 771.2 601C814 601 857 601 878.5 601L900 601L900 479L878.5 472C857 465 814 451 771.2 449C728.3 447 685.7 457 642.8 455C600 453 557 439 514.2 436C471.3 433 428.7 441 385.8 450C343 459 300 469 257.2 468C214.3 467 171.7 455 128.8 448C86 441 43 439 21.5 438L0 437Z" fill="#004cbb"></path></svg>